HIERARCHY
ROOT Hips
{
	OFFSET -3.958830 18.904000 13.208200
	CHANNELS 6 Xposition Yposition Zposition Zrotation Yrotation Xrotation 
	JOINT LHipJoint
	{
		OFFSET 0.000000 0.000000 0.000000
		CHANNELS 3 Zrotation Yrotation Xrotation
		JOINT LeftUpLeg
		{
			OFFSET 1.800000 -1.400000 0.085000
			CHANNELS 3 Zrotation Yrotation Xrotation
			JOINT LeftLeg
			{
				OFFSET 2.215000 -6.000000 0.000000
				CHANNELS 3 Zrotation Yrotation Xrotation
				JOINT LeftFoot
				{
					OFFSET 2.500000 -6.900000 0.000000
					CHANNELS 3 Zrotation Yrotation Xrotation
					JOINT LeftToeBase
					{
						OFFSET 0.200000 -0.500000 1.950000
						CHANNELS 3 Zrotation Yrotation Xrotation
						End Site
						{
							OFFSET 0.000000 0.000000 0.000000
						}
					}
				}
			}
		}
	}
	JOINT RHipJoint
	{
		OFFSET 0.000000 0.000000 0.000000
		CHANNELS 3 Zrotation Yrotation Xrotation
		JOINT RightUpLeg
		{
			OFFSET -1.800000 -1.400000 0.085000
			CHANNELS 3 Zrotation Yrotation Xrotation
			JOINT RightLeg
			{
				OFFSET -2.215000 -6.000000 0.000000
				CHANNELS 3 Zrotation Yrotation Xrotation
				JOINT RightFoot
				{
					OFFSET -2.500000 -6.900000 0.000000
					CHANNELS 3 Zrotation Yrotation Xrotation
					JOINT RightToeBase
					{
						OFFSET -0.200000 -0.500000 1.950000
						CHANNELS 3 Zrotation Yrotation Xrotation
						End Site
						{
							OFFSET 0.000000 0.000000 0.000000
						}
					}
				}
			}
		}
	}
	JOINT LowerBack
	{
		OFFSET 0.000000 0.000000 0.000000
		CHANNELS 3 Zrotation Yrotation Xrotation
		JOINT Spine
		{
			OFFSET -0.087000 1.940000 -0.288900
			CHANNELS 3 Zrotation Yrotation Xrotation
			JOINT Spine1
			{
				OFFSET 0.000000 1.950000 0.060000
				CHANNELS 3 Zrotation Yrotation Xrotation
				JOINT Neck
				{
					OFFSET 0.000000 0.000000 0.000000
					CHANNELS 3 Zrotation Yrotation Xrotation
					JOINT Neck1
					{
						OFFSET 0.000000 1.600000 0.340000
						CHANNELS 3 Zrotation Yrotation Xrotation
						JOINT Head
						{
							OFFSET 0.000000 1.667000 -0.240000
							CHANNELS 3 Zrotation Yrotation Xrotation
							End Site
							{
								OFFSET 0.000000 0.000000 0.000000
							}
						}
					}
				}
				JOINT LeftShoulder
				{
					OFFSET 0.000000 0.000000 0.000000
					CHANNELS 3 Zrotation Yrotation Xrotation
					JOINT LeftArm
					{
						OFFSET 2.700000 1.550000 -0.730000
						CHANNELS 3 Zrotation Yrotation Xrotation
						JOINT LeftForeArm
						{
							OFFSET 5.450000 0.000000 0.000000
							CHANNELS 3 Zrotation Yrotation Xrotation
							JOINT LeftHand
							{
								OFFSET 3.450000 0.000000 0.000000
								CHANNELS 3 Zrotation Yrotation Xrotation
								JOINT LeftHandIndex1
								{
									OFFSET 0.750000 0.000000 0.000000
									CHANNELS 3 Zrotation Yrotation Xrotation
									End Site
									{
										OFFSET 0.000000 0.000000 0.000000
									}
								}
							}
						}
					}
				}
				JOINT RightShoulder
				{
					OFFSET 0.000000 0.000000 0.000000
					CHANNELS 3 Zrotation Yrotation Xrotation
					JOINT RightArm
					{
						OFFSET -2.700000 1.550000 -0.730000
						CHANNELS 3 Zrotation Yrotation Xrotation
						JOINT RightForeArm
						{
							OFFSET -5.450000 0.000000 0.000000
							CHANNELS 3 Zrotation Yrotation Xrotation
							JOINT RightHand
							{
								OFFSET -3.450000 0.000000 0.000000
								CHANNELS 3 Zrotation Yrotation Xrotation
								JOINT RightHandIndex1
								{
									OFFSET -0.750000 0.000000 0.000000
									CHANNELS 3 Zrotation Yrotation Xrotation
									End Site
									{
										OFFSET 0.000000 0.000000 0.000000
									}
								}
							}
						}
					}
				}
			}
		}
	}
}
MOTION
Frames: 13
Frame Time: 0.016667
-0.277210 17.683930 -0.611440 -2.272107 -1.158664 3.638240 -14.946776 13.074299 2.700188 4.519270 -1.860482 -15.752423 -7.340624 6.217963 14.793150 0.020211 3.934329 3.264284 -0.364480 -0.452370 -0.047160 18.518719 -11.184666 2.623495 -0.633153 1.520858 -16.234169 3.412838 -4.290802 16.828812 0.360500 -3.396740 3.109037 -0.208020 0.554190 0.154510 -4.232710 -0.729419 -6.585741 12.363045 -0.439935 2.254905 -5.155661 -0.545610 2.345869 2.662968 -1.853344 -4.973833 -3.462071 3.489539 26.830861 -5.454920 6.927130 10.729840 -26.342446 0.417001 -0.002523 -51.460862 -2.554272 -4.507733 -10.924788 -14.825471 0.324048 -4.212363 3.150164 -0.339040 0.478330 -0.376260 -0.073270 20.670474 0.200434 2.210149 55.374751 -1.032114 -7.904370 17.771116 20.742240 0.297334 2.860511 -1.553119 -0.192460 -0.122450 0.096230 0.142450 
-0.277290 17.680670 -0.612620 -2.161191 -1.082464 3.662891 -14.960495 13.086587 2.714753 4.435707 -1.901001 -15.906130 -7.333545 6.236858 14.968050 0.008301 3.938445 3.256705 -0.359720 -0.453550 -0.030460 18.502038 -11.183179 2.619914 -0.649357 1.527873 -16.305585 3.250277 -4.261838 16.947390 0.356602 -3.375399 3.112193 -0.208570 0.539440 0.149510 -4.188757 -0.758920 -6.599941 11.935293 -0.367070 2.373548 -4.852319 -0.477156 2.245854 2.684548 -1.662339 -4.976929 -3.181629 3.290573 27.077818 -5.527810 6.896740 10.440790 -26.142001 0.530724 -0.037024 -51.921687 -2.650078 -4.528015 -10.823590 -14.941969 0.303423 -4.205285 3.130234 -0.319440 0.466000 -0.365810 -0.081050 20.476589 0.019658 2.166562 55.610215 -1.041099 -7.938266 17.646393 20.670375 0.291376 2.861263 -1.535650 -0.197820 -0.117490 0.095520 0.131070 
-0.271260 17.675460 -0.615150 -2.182295 -1.012132 3.718734 -14.962237 13.081888 2.725033 4.408379 -1.965510 -16.218950 -7.326982 6.278579 15.327643 0.005673 3.942726 3.239615 -0.348610 -0.439220 -0.016440 18.498668 -11.188956 2.620384 -0.624624 1.553295 -16.444117 3.193823 -4.273396 17.172180 0.347827 -3.369337 3.104412 -0.205300 0.518160 0.153080 -4.182101 -0.744513 -6.607916 11.855418 -0.324633 2.472714 -4.680733 -0.442258 2.206064 2.700260 -1.547500 -4.910203 -3.018473 3.014361 27.295096 -5.713280 6.780680 10.062340 -25.793582 0.871561 -0.150729 -52.633759 -2.860743 -4.532575 -10.971560 -15.168488 0.319467 -4.201529 3.125239 -0.311790 0.454380 -0.350550 -0.089130 20.109799 -0.361596 2.029158 55.897410 -0.913043 -7.893214 17.517907 20.520023 0.282055 2.865534 -1.526807 -0.187030 -0.123340 0.093460 0.126370 
-0.267210 17.671900 -0.617990 -2.201178 -1.213962 3.833167 -14.962009 13.074363 2.734858 4.367207 -2.019551 -16.511188 -7.283401 6.286418 15.550832 -0.016932 3.945097 3.229957 -0.338790 -0.433670 0.000050 18.497950 -11.197114 2.622621 -0.519444 1.610669 -16.677552 2.936209 -4.224934 17.424368 0.342169 -3.344118 3.106400 -0.199690 0.506900 0.151900 -4.178180 -0.717602 -6.611431 11.736072 -0.164375 2.580259 -4.518468 -0.277798 2.092695 2.677463 -1.547412 -4.771996 -3.055920 2.809909 27.564101 -5.795940 6.556540 9.543140 -25.317099 1.520649 -0.401028 -53.585616 -3.189112 -4.474751 -10.963933 -15.416461 0.309362 -4.201413 3.093847 -0.287950 0.442450 -0.336350 -0.094450 19.675938 -0.939371 1.832452 56.362420 -0.762687 -7.849092 17.273801 20.322812 0.263967 2.864795 -1.502504 -0.192970 -0.111510 0.094420 0.117580 
-0.260240 17.669520 -0.616160 -2.167885 -1.099662 3.805859 -14.967594 13.089071 2.748802 4.290873 -2.073387 -16.698195 -7.238429 6.323351 15.896792 -0.034052 3.965414 3.209681 -0.342430 -0.444820 0.001190 18.488518 -11.197304 2.619586 -0.588820 1.581115 -16.627020 2.893658 -4.228960 17.426127 0.339733 -3.326420 3.107994 -0.204020 0.494220 0.143850 -4.157602 -0.751897 -6.627857 11.500769 -0.095889 2.747146 -4.335745 -0.192372 1.934491 2.622219 -1.615589 -4.692279 -3.294074 2.755677 28.252681 -5.623040 6.280080 9.353080 -24.968482 2.057834 -0.596035 -54.445638 -3.447830 -4.434523 -11.070399 -15.788374 0.322725 -4.192995 3.068541 -0.260900 0.424230 -0.328270 -0.105300 19.438380 -1.378354 1.717566 56.599994 -0.788460 -7.856359 17.069747 20.093338 0.265320 2.866857 -1.471040 -0.202130 -0.103310 0.106470 0.107750 
-0.249290 17.664360 -0.613480 -2.300569 -0.777925 3.784878 -14.965982 13.089273 2.749133 4.374633 -2.124499 -16.898462 -7.212751 6.372857 16.289152 -0.013647 3.972259 3.201772 -0.309930 -0.412660 0.020760 18.490071 -11.198828 2.619396 -0.529252 1.570134 -16.607732 2.935747 -4.255837 17.576659 0.322250 -3.335322 3.104039 -0.196330 0.472200 0.148270 -4.166818 -0.752717 -6.629486 11.539116 -0.098932 2.808850 -4.263133 -0.201996 1.927554 2.582762 -1.662596 -4.558712 -3.460148 2.669790 28.724145 -5.550600 6.143490 9.415590 -24.720543 2.623593 -0.793472 -55.124283 -3.776947 -4.412310 -11.497221 -16.478238 0.432413 -4.166594 3.090578 -0.259400 0.408390 -0.312420 -0.090610 19.255229 -1.922282 1.553822 56.711104 -0.859601 -7.852393 17.082629 20.013811 0.270616 2.876272 -1.486404 -0.181730 -0.118230 0.079480 0.111410 
-0.239070 17.656030 -0.612350 -2.371089 -0.521997 3.784012 -14.971836 13.095487 2.753694 4.408718 -2.176808 -17.112808 -7.250683 6.437190 16.612579 -0.004361 3.999674 3.196982 -0.301180 -0.398790 0.021400 18.487181 -11.183480 2.609474 -0.509341 1.572327 -16.684591 2.930691 -4.269601 17.801513 0.318483 -3.340183 3.103310 -0.186990 0.476840 0.138290 -4.158402 -0.800769 -6.617938 11.436134 -0.139029 2.834657 -4.085766 -0.238856 1.985100 2.397053 -1.945279 -4.388601 -4.031900 2.862362 28.963085 -5.329920 6.014880 9.492410 -24.280057 3.353798 -1.030643 -56.010579 -4.230299 -4.294580 -12.141332 -17.300626 0.584039 -4.157418 3.086384 -0.261190 0.403070 -0.311280 -0.078840 19.171251 -2.470202 1.336546 56.612676 -0.841947 -7.768012 17.177593 19.836663 0.282791 2.884304 -1.484971 -0.184590 -0.105430 0.068370 0.118830 
-0.228150 17.648640 -0.615520 -2.452783 -0.552491 3.673939 -14.968724 13.122071 2.765900 4.443164 -2.228277 -17.244305 -7.268630 6.517988 17.047191 -0.006661 4.046962 3.173410 -0.279700 -0.389000 0.048920 18.488273 -11.168233 2.604350 -0.445674 1.595334 -16.760378 2.773027 -4.261121 18.148642 0.307558 -3.323129 3.104968 -0.182370 0.461280 0.132700 -4.164515 -0.883389 -6.627444 11.556613 -0.188179 3.058532 -4.094608 -0.230324 1.995862 2.170497 -2.554030 -4.319725 -5.271583 3.327873 29.652534 -5.055440 5.879740 9.141150 -23.838763 4.006894 -1.251505 -56.800021 -4.705210 -4.116166 -12.878016 -18.200589 0.749339 -4.137206 3.070158 -0.235260 0.380330 -0.295770 -0.081000 19.103447 -2.705556 1.249348 56.546419 -0.795233 -7.720866 17.278617 19.628924 0.320209 2.891038 -1.463624 -0.185730 -0.093840 0.060370 0.110810 
-0.216060 17.643700 -0.620840 -2.406235 -0.608087 3.459624 -14.977564 13.193100 2.788754 4.231887 -2.259042 -17.241109 -7.079301 6.507930 17.340260 -0.020814 4.049383 3.153984 -0.280500 -0.391140 0.047770 18.471432 -11.138989 2.593370 -0.601891 1.582496 -16.777754 2.717229 -4.293376 18.472539 0.299316 -3.307553 3.097417 -0.186900 0.442550 0.119990 -4.127203 -1.074977 -6.654270 11.424114 -0.280571 3.439052 -3.901656 -0.238123 1.893824 1.872097 -3.374284 -4.421162 -7.022880 4.201885 30.657866 -4.687340 5.976000 8.830400 -23.526431 4.330281 -1.328814 -57.491281 -5.100043 -3.957525 -13.537501 -19.192234 0.912789 -4.110572 3.058544 -0.201650 0.349890 -0.281390 -0.096020 19.321418 -2.435266 1.325614 56.159944 -0.831761 -7.675438 16.743279 18.963780 0.248223 2.901718 -1.420922 -0.190440 -0.084660 0.075490 0.103540 
-0.204080 17.637930 -0.625310 -2.262463 -0.679822 3.270360 -14.997098 13.267735 2.816972 3.947004 -2.317490 -17.249967 -6.954071 6.528096 17.707813 -0.054591 4.109515 3.125215 -0.294180 -0.425660 0.043650 18.446415 -11.097756 2.568711 -0.902660 1.594806 -16.890076 2.703447 -4.371857 18.992224 0.298518 -3.319259 3.079908 -0.193890 0.448050 0.117170 -4.062787 -1.302500 -6.664719 11.081632 -0.346330 3.755964 -3.601404 -0.220449 1.823721 1.504172 -4.290240 -4.523133 -8.971353 5.275314 31.271887 -4.378030 6.184100 8.634390 -23.057434 4.777985 -1.404937 -58.264279 -5.460692 -3.785687 -14.414923 -20.447049 1.118583 -4.105612 3.038786 -0.158600 0.336520 -0.279370 -0.109140 19.537769 -2.226335 1.385497 55.755527 -0.908606 -7.653675 16.176446 18.250033 0.173944 2.899075 -1.374414 -0.218200 -0.065420 0.103800 0.088060 
-0.193350 17.632860 -0.629610 -2.134379 -0.764222 3.104521 -15.016152 13.331707 2.840765 3.768909 -2.352650 -17.225149 -6.974628 6.573081 17.912389 -0.067059 4.149629 3.105086 -0.291900 -0.431710 0.057990 18.425591 -11.050957 2.541806 -1.146325 1.607569 -17.006062 2.649261 -4.412687 19.451560 0.293929 -3.323349 3.063806 -0.191660 0.439410 0.109480 -4.004951 -1.520163 -6.662291 10.815253 -0.437074 3.992992 -3.362709 -0.238239 1.857980 1.144207 -5.248046 -4.632995 -11.017038 6.423273 31.547040 -4.395140 6.740320 8.408490 -22.600200 5.211433 -1.448543 -58.838549 -5.815150 -3.607498 -15.537160 -21.714810 1.418302 -4.090833 3.036431 -0.134030 0.321200 -0.271930 -0.119540 19.741344 -1.997880 1.441608 55.394508 -0.958127 -7.622677 15.631567 17.560847 0.075951 2.907992 -1.347092 -0.231730 -0.055280 0.109860 0.076170 
-0.180650 17.630080 -0.634170 -1.979214 -0.865179 2.987557 -15.041823 13.397179 2.862128 3.524561 -2.402119 -17.220039 -6.924564 6.585974 18.062838 -0.096349 4.201208 3.090146 -0.298270 -0.461460 0.076510 18.401037 -10.994017 2.508620 -1.488095 1.627706 -17.149303 2.696596 -4.493444 19.892232 0.298734 -3.344565 3.047080 -0.195400 0.448100 0.107130 -3.932534 -1.760739 -6.644015 10.489974 -0.534618 4.140102 -3.004334 -0.273007 1.955277 0.760376 -6.204520 -4.770052 -13.069593 7.746381 31.371357 -4.624380 7.597560 8.347300 -22.124425 5.567866 -1.423229 -59.467476 -6.104362 -3.447444 -16.691756 -23.096628 1.733036 -4.095527 3.031218 -0.108240 0.322920 -0.279860 -0.133280 19.995292 -1.713483 1.511626 54.822317 -0.999757 -7.560233 15.141830 16.822592 -0.019973 2.905932 -1.322279 -0.259100 -0.042300 0.124600 0.055040 
-0.169430 17.630530 -0.640220 -1.765049 -0.972027 2.906972 -15.072192 13.464642 2.892247 3.240037 -2.455170 -17.206342 -6.955208 6.597163 18.101812 -0.132457 4.243751 3.066094 -0.302070 -0.488560 0.102610 18.371966 -10.931002 2.474054 -1.807112 1.653523 -17.326052 2.592874 -4.517155 20.287420 0.300582 -3.345517 3.019732 -0.195960 0.438980 0.108590 -3.846221 -2.018606 -6.632029 10.080070 -0.626077 4.330056 -2.706390 -0.290190 1.944136 0.436259 -7.119757 -4.938034 -15.099476 9.197246 30.984205 -4.932910 8.673220 8.009780 -21.738630 5.902258 -1.403644 -59.860193 -6.368813 -3.294720 -17.598527 -24.501853 2.029479 -4.093801 3.036932 -0.075510 0.314080 -0.278480 -0.157030 20.233696 -1.454688 1.613662 54.384326 -1.108088 -7.550448 14.588074 16.198993 -0.107668 2.907905 -1.299163 -0.283900 -0.041000 0.142240 0.027270 
